<svg xmlns="http://www.w3.org/2000/svg" viewBox="0 0 360 220" role="img" aria-labelledby="title desc">
  <title id="title">Swiss snow season</title>
  <desc id="desc">A stylized Swiss mountain slope with snow, sun, and skis.</desc>
  <defs>
    <linearGradient id="sky" x1="0" x2="0" y1="0" y2="1">
      <stop offset="0" stop-color="#bfe3f5"/>
      <stop offset="1" stop-color="#f7fbff"/>
    </linearGradient>
    <linearGradient id="snow" x1="0" x2="1" y1="0" y2="1">
      <stop offset="0" stop-color="#ffffff"/>
      <stop offset="1" stop-color="#dcecf5"/>
    </linearGradient>
  </defs>
  <rect width="360" height="220" rx="28" fill="url(#sky)"/>
  <circle cx="286" cy="52" r="23" fill="#ffd166"/>
  <path d="M28 166 128 46l48 64 34-42 124 98Z" fill="#6d8795"/>
  <path d="M128 46 98 98l30-11 18 39 30-16Zm82 22-25 47 28-12 20 31 31-13Z" fill="#f9fbff"/>
  <path d="M0 150c52-19 97-23 136-12 38 10 68 10 108-4 43-15 82-11 116 10v76H0Z" fill="url(#snow)"/>
  <path d="M73 181c46 14 107 15 176 1" fill="none" stroke="#88b4c9" stroke-width="7" stroke-linecap="round" opacity=".55"/>
  <path d="M133 166 96 197M156 168l-37 31" fill="none" stroke="#d9423a" stroke-width="8" stroke-linecap="round"/>
  <path d="M111 162 82 194M134 165l-29 32" fill="none" stroke="#2f3a45" stroke-width="3" stroke-linecap="round"/>
  <path d="M92 72h36v25H92z" fill="#d9423a"/>
  <path d="M92 72h12v25H92zM116 72h12v25h-12z" fill="#ffffff"/>
  <path d="M92 72h36M92 97h36" fill="none" stroke="#9e2f2b" stroke-width="3"/>
</svg>
